# xmcd
#
# Track frame offsets:
#   150
#   20560
#   36613
#   52960
#   68252
#   78320
#   95486
#   109770
#   124974
#   139858
#   154741
#   172585
#   187362
#   200744
#   213363
#   225913
#   240257
#   255516
#   270003
#   287199
#   307983
#
# Disc length: 4284 seconds
#
# Revision: 0
# Processed by: cddbd v1.5.1PL2 Copyright (c) Steve Scherf et al.
# Submitted via: uFREEDB ActiveX Control 1.5
#
DISCID=1910ba15
DTITLE=ataide e alexandre - rodeio cowntry sertanejo
DYEAR=1900
DGENRE=Country
TTITLE0=loço aberto
TTITLE1=muleca
TTITLE2=casa cheia
TTITLE3=namoro novo
TTITLE4=amor carrapicho
TTITLE5=ai que vontade de você
TTITLE6=de sp a belém
TTITLE7=só depois do casamento
TTITLE8=gol do coração
TTITLE9=ai que trem bão
TTITLE10=na virada de 2000
TTITLE11=que nem chiclete
TTITLE12=
TTITLE13=bate o pé
TTITLE14=cospe grosso
TTITLE15=sou maluco por mulher
TTITLE16=na pontinha do pé
TTITLE17=boto pra remexer
TTITLE18=paixão de peão
TTITLE19=a gata do milennio
TTITLE20=sofro e choro
EXTD=
EXTT0=
EXTT1=
EXTT2=
EXTT3=
EXTT4=
EXTT5=
EXTT6=
EXTT7=
EXTT8=
EXTT9=
EXTT10=
EXTT11=
EXTT12=
EXTT13=
EXTT14=
EXTT15=
EXTT16=
EXTT17=
EXTT18=
EXTT19=
EXTT20=
PLAYORDER=
